<svg xmlns="http://www.w3.org/2000/svg" width="28.592" height="28.592" viewBox="0 0 28.592 28.592">
  <g id="Group_2659" data-name="Group 2659" transform="translate(-238 -6552.079)">
    <g id="instagram_2_" data-name="instagram (2)" transform="translate(238 6552.079)">
      <g id="Group_2654" data-name="Group 2654" transform="translate(21.913 5.29)">
        <g id="Group_2653" data-name="Group 2653">
          <path id="Path_6929" data-name="Path 6929" d="M393.1,94.739a.694.694,0,1,0,.694.694A.695.695,0,0,0,393.1,94.739Z" transform="translate(-392.401 -94.739)" fill="#fff"/>
        </g>
      </g>
      <g id="Group_2656" data-name="Group 2656" transform="translate(8.142 8.142)">
        <g id="Group_2655" data-name="Group 2655">
          <path id="Path_6930" data-name="Path 6930" d="M151.958,145.8a6.154,6.154,0,1,0,6.154,6.154A6.161,6.161,0,0,0,151.958,145.8Z" transform="translate(-145.804 -145.804)" fill="#fff"/>
        </g>
      </g>
      <g id="Group_2658" data-name="Group 2658">
        <g id="Group_2657" data-name="Group 2657">
          <path id="Path_6931" data-name="Path 6931" d="M20.754,0H7.838A7.847,7.847,0,0,0,0,7.838V20.754a7.847,7.847,0,0,0,7.838,7.838H20.754a7.847,7.847,0,0,0,7.838-7.838V7.838A7.847,7.847,0,0,0,20.754,0ZM14.3,22.138A7.842,7.842,0,1,1,22.138,14.3,7.851,7.851,0,0,1,14.3,22.138ZM22.607,8.367A2.383,2.383,0,1,1,24.99,5.985,2.385,2.385,0,0,1,22.607,8.367Z" fill="#fff"/>
        </g>
      </g>
    </g>
  </g>
</svg>
