<svg xmlns="http://www.w3.org/2000/svg" width="28.593" height="28.592" viewBox="0 0 28.593 28.592">
  <g id="pinterest" transform="translate(-0.002 -0.001)">
    <path id="Exclusion_1" data-name="Exclusion 1" d="M12595.3-5983.486a14.2,14.2,0,0,1-10.108-4.187,14.2,14.2,0,0,1-4.187-10.108,14.2,14.2,0,0,1,4.187-10.109,14.2,14.2,0,0,1,10.108-4.188,14.208,14.208,0,0,1,10.11,4.188,14.205,14.205,0,0,1,4.188,10.109,14.2,14.2,0,0,1-4.187,10.108A14.208,14.208,0,0,1,12595.3-5983.486Zm-.971-18.426a1.781,1.781,0,0,0-1.52,1.03,3.658,3.658,0,0,0-.1,3.412c-.161.792-.378,1.6-.569,2.31a16.854,16.854,0,0,0-.791,7.1c1.691-1.229,2.252-3.545,2.721-6.013.205.125.382.247.576.381a3.336,3.336,0,0,0,1.808.754c.136.01.271.016.4.016a4.687,4.687,0,0,0,3.608-1.686,8.082,8.082,0,0,0,1.661-6.27c-.408-2.955-3.081-4.939-6.651-4.939a9.589,9.589,0,0,0-1.062.06,6.647,6.647,0,0,0-6.013,6.127c-.085,2.358.732,3.693,2.5,4.082a1.64,1.64,0,0,0-.051-2l0-.007a2.551,2.551,0,0,1-.4-.938,4.621,4.621,0,0,1,1.082-3.779,5.54,5.54,0,0,1,4.1-1.926,4.255,4.255,0,0,1,3.1,1.284c1.281,1.3,1.239,4.1.465,5.954-.6,1.437-1.582,2.261-2.69,2.262a2.5,2.5,0,0,1-.493-.051,1.405,1.405,0,0,1-1.009-.619c-.408-.694-.044-1.841.309-2.951.463-1.458.941-2.962-.322-3.462A1.768,1.768,0,0,0,12594.325-6001.913Z" transform="translate(-12581 6012.079)" fill="#fff"/>
  </g>
</svg>