<svg id="whatsapp" xmlns="http://www.w3.org/2000/svg" width="28.592" height="28.592" viewBox="0 0 28.592 28.592">
  <g id="Group_6355" data-name="Group 6355">
    <path id="Path_7009" data-name="Path 7009" d="M14.3,0h-.007A14.287,14.287,0,0,0,2.722,22.675L.94,27.986l5.495-1.757A14.293,14.293,0,1,0,14.3,0Zm8.318,20.188a4.034,4.034,0,0,1-2.806,2.018c-.747.159-1.723.286-5.007-1.076-4.2-1.741-6.907-6.01-7.118-6.287a8.165,8.165,0,0,1-1.7-4.312A4.564,4.564,0,0,1,7.452,7.051a2.077,2.077,0,0,1,1.462-.513c.177,0,.336.009.479.016.42.018.631.043.908.706.345.831,1.185,2.882,1.285,3.093a.851.851,0,0,1,.061.774,2.47,2.47,0,0,1-.463.656c-.211.243-.411.429-.622.69-.193.227-.411.47-.168.89a12.689,12.689,0,0,0,2.32,2.882,10.51,10.51,0,0,0,3.352,2.068.9.9,0,0,0,1.008-.159,17.3,17.3,0,0,0,1.117-1.48.8.8,0,0,1,1.026-.311c.386.134,2.429,1.144,2.848,1.353s.7.311.8.488A3.56,3.56,0,0,1,22.618,20.188Z" fill="#fff"/>
  </g>
</svg>