<svg xmlns="http://www.w3.org/2000/svg" width="28.592" height="28.591" viewBox="0 0 28.592 28.591">
  <g id="facebook_7_" data-name="facebook (7)" transform="translate(0 -0.001)">
    <path id="Subtraction_1" data-name="Subtraction 1" d="M12543.705-5983.487a14.2,14.2,0,0,1-10.11-4.187,14.2,14.2,0,0,1-4.186-10.108,14.2,14.2,0,0,1,4.186-10.108,14.2,14.2,0,0,1,10.11-4.187,14.2,14.2,0,0,1,10.108,4.188,14.2,14.2,0,0,1,4.188,10.108,14.2,14.2,0,0,1-4.187,10.108A14.2,14.2,0,0,1,12543.705-5983.487Zm-2.82-13.738v9.348h3.863v-9.348h2.55l.337-3.281h-2.887v-1.932a.789.789,0,0,1,.819-.9h2.077v-3.189l-2.861-.009a3.624,3.624,0,0,0-3.9,3.9v2.124h-1.841v3.284Z" transform="translate(-12529.408 6012.079)" fill="#fff"/>
  </g>
</svg>