<svg xmlns="http://www.w3.org/2000/svg" width="25.188" height="25.188" viewBox="0 0 25.188 25.188">
  <g id="Group_2662" data-name="Group 2662" transform="translate(-435.01 -6553.781)">
    <path id="linkedin_1_" data-name="linkedin (1)" d="M23.371,0H1.817A1.816,1.816,0,0,0,0,1.817V23.371a1.816,1.816,0,0,0,1.817,1.817H23.371a1.816,1.816,0,0,0,1.817-1.817V1.817A1.816,1.816,0,0,0,23.371,0ZM8.934,19.038H5.867V9.811H8.934ZM7.4,8.551h-.02a1.6,1.6,0,1,1,.04-3.188A1.6,1.6,0,1,1,7.4,8.551ZM19.994,19.038H16.927V14.1c0-1.241-.444-2.087-1.554-2.087A1.679,1.679,0,0,0,13.8,13.137a2.1,2.1,0,0,0-.1.748v5.153H10.632s.04-8.362,0-9.228H13.7v1.307a3.045,3.045,0,0,1,2.764-1.523c2.018,0,3.531,1.319,3.531,4.153Zm0,0" transform="translate(435.01 6553.781)" fill="#fff"/>
  </g>
</svg>
